{
  "asset": {
    "generator": "Khronos glTF Blender I/O v4.0.44",
    "version": "2.0"
  },
  "scene": 0,
  "scenes": [
    {
      "name": "Scene",
      "nodes": [
        0
      ]
    }
  ],
  "nodes": [
    {
      "mesh": 0,
      "name": "boulder_01"
    }
  ],
  "materials": [
    {
      "doubleSided": true,
      "name": "boulder_01",
      "normalTexture": {
        "index": 0
      },
      "pbrMetallicRoughness": {
        "baseColorTexture": {
          "index": 1
        },
        "metallicFactor": 0,
        "metallicRoughnessTexture": {
          "index": 2
        }
      }
    }
  ],
  "meshes": [
    {
      "name": "rock_PROXY_5m.002",
      "primitives": [
        {
          "attributes": {
            "POSITION": 0,
            "NORMAL": 1,
            "TEXCOORD_0": 2
          },
          "indices": 3,
          "material": 0
        }
      ]
    }
  ],
  "textures": [
    {
      "sampler": 0,
      "source": 0
    },
    {
      "sampler": 0,
      "source": 1
    },
    {
      "sampler": 0,
      "source": 2
    }
  ],
  "images": [
    {
      "mimeType": "image/jpeg",
      "name": "boulder_01_nor_gl",
      "uri": "textures/boulder_01_nor_gl_2k.jpg"
    },
    {
      "mimeType": "image/jpeg",
      "name": "boulder_01_diff",
      "uri": "textures/boulder_01_diff_2k.jpg"
    },
    {
      "mimeType": "image/jpeg",
      "name": "boulder_01_rough",
      "uri": "textures/boulder_01_arm_2k.jpg"
    }
  ],
  "accessors": [
    {
      "bufferView": 0,
      "componentType": 5126,
      "count": 67042,
      "max": [
        0.5239759087562561,
        0.9301872253417969,
        0.8818937540054321
      ],
      "min": [
        -0.7481597065925598,
        -0.07364296913146973,
        -0.9484404921531677
      ],
      "type": "VEC3"
    },
    {
      "bufferView": 1,
      "componentType": 5126,
      "count": 67042,
      "type": "VEC3"
    },
    {
      "bufferView": 2,
      "componentType": 5126,
      "count": 67042,
      "type": "VEC2"
    },
    {
      "bufferView": 3,
      "componentType": 5125,
      "count": 198366,
      "type": "SCALAR"
    }
  ],
  "bufferViews": [
    {
      "buffer": 0,
      "byteLength": 804504,
      "byteOffset": 0,
      "target": 34962
    },
    {
      "buffer": 0,
      "byteLength": 804504,
      "byteOffset": 804504,
      "target": 34962
    },
    {
      "buffer": 0,
      "byteLength": 536336,
      "byteOffset": 1609008,
      "target": 34962
    },
    {
      "buffer": 0,
      "byteLength": 793464,
      "byteOffset": 2145344,
      "target": 34963
    }
  ],
  "samplers": [
    {
      "magFilter": 9729,
      "minFilter": 9987
    }
  ],
  "buffers": [
    {
      "byteLength": 2938808,
      "uri": "boulder_01.bin"
    }
  ]
}