{
	"asset":{
		"generator":"Khronos glTF Blender I/O v4.0.44",
		"version":"2.0"
	},
	"scene":0,
	"scenes":[
		{
			"name":"Scene",
			"nodes":[
				0
			]
		}
	],
	"nodes":[
		{
			"mesh":0,
			"name":"SM_Skydome_1cm_01",
			"scale":[
				0.009999999776482582,
				0.009999999776482582,
				0.009999999776482582
			]
		}
	],
	"materials":[
		{
			"doubleSided":true,
			"name":"lambert1.001",
			"pbrMetallicRoughness":{
				"baseColorFactor":[
					0.5,
					0.5,
					0.5,
					1
				],
				"metallicFactor":0,
				"roughnessFactor":0.5527864098548889
			}
		}
	],
	"meshes":[
		{
			"name":"Mesh.001",
			"primitives":[
				{
					"attributes":{
						"POSITION":0,
						"NORMAL":1,
						"TEXCOORD_0":2
					},
					"indices":3,
					"material":0
				}
			]
		}
	],
	"accessors":[
		{
			"bufferView":0,
			"componentType":5126,
			"count":14997,
			"max":[
				1,
				1,
				0.9980239868164062
			],
			"min":[
				-1,
				-1,
				-0.9980239868164062
			],
			"type":"VEC3"
		},
		{
			"bufferView":1,
			"componentType":5126,
			"count":14997,
			"type":"VEC3"
		},
		{
			"bufferView":2,
			"componentType":5126,
			"count":14997,
			"type":"VEC2"
		},
		{
			"bufferView":3,
			"componentType":5123,
			"count":88200,
			"type":"SCALAR"
		}
	],
	"bufferViews":[
		{
			"buffer":0,
			"byteLength":179964,
			"byteOffset":0,
			"target":34962
		},
		{
			"buffer":0,
			"byteLength":179964,
			"byteOffset":179964,
			"target":34962
		},
		{
			"buffer":0,
			"byteLength":119976,
			"byteOffset":359928,
			"target":34962
		},
		{
			"buffer":0,
			"byteLength":176400,
			"byteOffset":479904,
			"target":34963
		}
	],
	"buffers":[
		{
			"byteLength":656304,
			"uri":"skydome.bin"
		}
	]
}
