{
	"asset":{
		"generator":"Khronos glTF Blender I/O v4.0.44",
		"version":"2.0"
	},
	"scene":0,
	"scenes":[
		{
			"name":"Scene",
			"nodes":[
				0
			]
		}
	],
	"nodes":[
		{
			"mesh":0,
			"name":"SM_Skydome_1cm_01",
			"scale":[
				0.009999999776482582,
				0.009999999776482582,
				0.009999999776482582
			],
			"translation":[
				0,
				0,
				0.5
			]
		}
	],
	"materials":[
		{
			"doubleSided":true,
			"name":"lambert1.001",
			"pbrMetallicRoughness":{
				"baseColorFactor":[
					0.5,
					0.5,
					0.5,
					1
				],
				"metallicFactor":0,
				"roughnessFactor":0.5527864098548889
			}
		}
	],
	"meshes":[
		{
			"name":"Mesh.001",
			"primitives":[
				{
					"attributes":{
						"POSITION":0,
						"NORMAL":1,
						"TEXCOORD_0":2
					},
					"indices":3,
					"material":0
				}
			]
		}
	],
	"accessors":[
		{
			"bufferView":0,
			"componentType":5126,
			"count":2599,
			"max":[
				1,
				1,
				0.9980239868164062
			],
			"min":[
				-1,
				-1,
				-0.9980239868164062
			],
			"type":"VEC3"
		},
		{
			"bufferView":1,
			"componentType":5126,
			"count":2599,
			"type":"VEC3"
		},
		{
			"bufferView":2,
			"componentType":5126,
			"count":2599,
			"type":"VEC2"
		},
		{
			"bufferView":3,
			"componentType":5123,
			"count":14700,
			"type":"SCALAR"
		}
	],
	"bufferViews":[
		{
			"buffer":0,
			"byteLength":31188,
			"byteOffset":0,
			"target":34962
		},
		{
			"buffer":0,
			"byteLength":31188,
			"byteOffset":31188,
			"target":34962
		},
		{
			"buffer":0,
			"byteLength":20792,
			"byteOffset":62376,
			"target":34962
		},
		{
			"buffer":0,
			"byteLength":29400,
			"byteOffset":83168,
			"target":34963
		}
	],
	"buffers":[
		{
			"byteLength":112568,
			"uri":"skydome.bin"
		}
	]
}
