{
  "asset": {
    "generator": "Khronos glTF Blender I/O v4.0.44",
    "version": "2.0"
  },
  "scene": 0,
  "scenes": [
    {
      "name": "Scene",
      "nodes": [
        0
      ]
    }
  ],
  "nodes": [
    {
      "mesh": 0,
      "name": "mountainside"
    }
  ],
  "materials": [
    {
      "doubleSided": true,
      "name": "mountainside",
      "normalTexture": {
        "index": 0
      },
      "pbrMetallicRoughness": {
        "baseColorTexture": {
          "index": 1
        },
        "metallicFactor": 0,
        "metallicRoughnessTexture": {
          "index": 2
        }
      }
    }
  ],
  "meshes": [
    {
      "name": "Plane",
      "primitives": [
        {
          "attributes": {
            "POSITION": 0,
            "NORMAL": 1,
            "TEXCOORD_0": 2
          },
          "indices": 3,
          "material": 0
        }
      ]
    }
  ],
  "textures": [
    {
      "sampler": 0,
      "source": 0
    },
    {
      "sampler": 0,
      "source": 1
    },
    {
      "sampler": 0,
      "source": 2
    }
  ],
  "images": [
    {
      "mimeType": "image/jpeg",
      "name": "mountainside_nor_gl",
      "uri": "textures/mountainside_nor_gl_4k.jpg"
    },
    {
      "mimeType": "image/jpeg",
      "name": "mountainside_diff",
      "uri": "textures/mountainside_diff_4k.jpg"
    },
    {
      "mimeType": "image/jpeg",
      "name": "mountainside_rough",
      "uri": "textures/mountainside_arm_4k.jpg"
    }
  ],
  "accessors": [
    {
      "bufferView": 0,
      "componentType": 5126,
      "count": 80238,
      "max": [
        5.182793617248535,
        10.322352409362793,
        1.565730094909668
      ],
      "min": [
        -5.026504993438721,
        -0.19979140162467957,
        -3.681164264678955
      ],
      "type": "VEC3"
    },
    {
      "bufferView": 1,
      "componentType": 5126,
      "count": 80238,
      "type": "VEC3"
    },
    {
      "bufferView": 2,
      "componentType": 5126,
      "count": 80238,
      "type": "VEC2"
    },
    {
      "bufferView": 3,
      "componentType": 5125,
      "count": 460416,
      "type": "SCALAR"
    }
  ],
  "bufferViews": [
    {
      "buffer": 0,
      "byteLength": 962856,
      "byteOffset": 0,
      "target": 34962
    },
    {
      "buffer": 0,
      "byteLength": 962856,
      "byteOffset": 962856,
      "target": 34962
    },
    {
      "buffer": 0,
      "byteLength": 641904,
      "byteOffset": 1925712,
      "target": 34962
    },
    {
      "buffer": 0,
      "byteLength": 1841664,
      "byteOffset": 2567616,
      "target": 34963
    }
  ],
  "samplers": [
    {
      "magFilter": 9729,
      "minFilter": 9987
    }
  ],
  "buffers": [
    {
      "byteLength": 4409280,
      "uri": "mountainside.bin"
    }
  ]
}